Coordinates
version=1
nRows=14
nColumns=40
inDegrees=yes

Units are S.I. units (second, meters, Newtons, ...)
Angles are in degrees.

endheader
time	pelvis_tilt	pelvis_list	pelvis_rotation	pelvis_tx	pelvis_ty	pelvis_tz	hip_flexion_r	hip_adduction_r	hip_rotation_r	knee_angle_r	knee_angle_r_beta	ankle_angle_r	subtalar_angle_r	mtp_angle_r	hip_flexion_l	hip_adduction_l	hip_rotation_l	knee_angle_l	knee_angle_l_beta	ankle_angle_l	subtalar_angle_l	mtp_angle_l	lumbar_extension	lumbar_bending	lumbar_rotation	arm_flex_r	arm_add_r	arm_rot_r	elbow_flex_r	pro_sup_r	wrist_flex_r	wrist_dev_r	arm_flex_l	arm_add_l	arm_rot_l	elbow_flex_l	pro_sup_l	wrist_flex_l	wrist_dev_l
     53.32942857	     -3.88072014	     -4.03961892	     10.18289002	      0.95708670	      0.91716417	      0.50193261	      5.09460538	      5.31812678	    -16.64553788	     18.89566518	     18.89566518	     19.55201165	     -7.21634197	     -1.73133956	     30.85248869	     -5.59816159	      2.69810367	     17.70868158	     17.70868158	      2.98150509	     -4.00453446	      1.12592907	     -8.91059546	      2.73390530	      4.65680618	     51.58118326	    -20.18248367	     -5.95629552	     79.65860307	     44.69945041	      0.00000000	      0.00000000	    -22.14637738	     -8.77817670	     10.81052887	     29.74655305	     44.06659878	      0.00000000	      0.00000000
     53.34885714	     -4.03503977	     -4.07865014	     10.33726145	      0.95742438	      0.91639083	      0.49930112	      4.73590485	      5.26277682	    -16.68390544	     18.76473791	     18.76473791	     19.78193214	     -7.26162371	     -1.75802736	     30.49200852	     -5.41700863	      2.61405864	     17.69054652	     17.69054652	      2.62239105	     -3.94167725	      1.00006242	     -8.70822313	      2.65350135	      4.79808602	     53.02508659	    -20.10145142	     -6.04319567	     80.31977818	     44.69124727	      0.00000000	      0.00000000	    -22.23254682	     -8.65908195	     10.95424560	     29.74820627	     44.05347259	      0.00000000	      0.00000000
     53.36828571	     -4.23360202	     -4.09350851	     10.54260851	      0.95796092	      0.91554715	      0.49638381	      4.42478737	      5.14965712	    -16.75857565	     18.68189437	     18.68189437	     20.04633296	     -7.35709395	     -1.80088067	     30.26180326	     -5.18642428	      2.55856748	     17.85850071	     17.85850071	      2.24955666	     -3.85701182	      1.00243572	     -8.34058182	      2.52849374	      4.90548199	     53.76510417	    -20.07083924	     -6.08016224	     80.64964791	     44.68585673	      0.00000000	      0.00000000	    -22.17896824	     -8.57415819	     10.99298937	     29.79309509	     44.05096271	      0.00000000	      0.00000000
     53.38771429	     -4.24480144	     -4.09882990	     10.68910771	      0.95855157	      0.91496850	      0.49334308	      3.90997662	      5.01347294	    -16.97566242	     18.62013143	     18.62013143	     20.25201443	     -7.03555976	     -1.76218222	     29.87295706	     -5.03415442	      2.40541995	     18.05959119	     18.05959119	      1.28758729	     -3.88172030	     -0.86345583	     -8.48001869	      2.43658733	      4.49358000	     55.02532928	    -19.43830472	     -6.13330317	     82.43678814	     44.65696409	      0.00000000	      0.00000000	    -22.02999863	     -8.45972818	     11.46849227	     30.18404199	     44.02778313	      0.00000000	      0.00000000
     53.40714286	     -4.34214057	     -4.03377987	     10.85826110	      0.95918372	      0.91446846	      0.48998492	      3.51820087	      4.78619879	    -17.03553304	     18.63789359	     18.63789359	     20.40910560	     -7.13997451	     -1.76152320	     29.68418261	     -4.74115349	      2.43075555	     18.50012602	     18.50012602	      0.98215990	     -3.99248358	     -1.08046381	     -8.37171935	      2.26698130	      4.54452349	     55.76986113	    -19.44177197	     -6.20484660	     82.75004826	     44.65595903	      0.00000000	      0.00000000	    -21.43919565	     -8.45092417	     11.51278695	     30.40828581	     44.03802455	      0.00000000	      0.00000000
     53.42657143	     -4.40103381	     -3.99123026	     11.03050551	      0.95992175	      0.91414891	      0.48642773	      3.07922468	      4.56956674	    -17.12296743	     18.65295904	     18.65295904	     20.51939657	     -7.14739152	     -1.73968016	     29.58173134	     -4.45601583	      2.57821541	     19.13269975	     19.13269975	      0.78591377	     -4.25823864	     -1.49738304	     -8.31506159	      2.15982805	      4.52722403	     56.29259799	    -19.36115918	     -6.29546572	     83.23174392	     44.65180684	      0.00000000	      0.00000000	    -20.73019050	     -8.42624228	     11.57726456	     30.65658387	     44.05295202	      0.00000000	      0.00000000
     53.44600000	     -4.58004476	     -3.88218902	     11.19110118	      0.96069816	      0.91402025	      0.48265137	      2.71408115	      4.26001949	    -17.18772411	     18.58173709	     18.58173709	     20.52905450	     -7.21575303	     -1.68724664	     29.49087922	     -4.07743110	      2.68569516	     19.55371496	     19.55371496	      0.77352527	     -4.34402379	     -1.65478309	     -8.08772678	      1.96533139	      4.42745361	     56.48099319	    -19.23325022	     -6.27538060	     83.36970470	     44.64879616	      0.00000000	      0.00000000	    -19.88346816	     -8.41061521	     11.57035029	     30.94372943	     44.06987046	      0.00000000	      0.00000000
     53.46542857	     -4.55676250	     -3.82689838	     11.26814043	      0.96159111	      0.91410072	      0.47892054	      2.12721657	      4.03582891	    -17.26000938	     18.50780031	     18.50780031	     20.51534352	     -7.09209044	     -1.63727371	     29.49786059	     -3.78570221	      2.96776786	     20.55353087	     20.55353087	      0.98807024	     -4.98326886	     -1.98096474	     -8.16804438	      1.83872140	      4.50437085	     56.71859693	    -19.21911278	     -6.40247005	     83.67517842	     44.64898807	      0.00000000	      0.00000000	    -18.91788473	     -8.54557800	     11.50989614	     31.24540046	     44.10336076	      0.00000000	      0.00000000
     53.48485714	     -4.63692299	     -3.80506694	     11.32650539	      0.96254815	      0.91427995	      0.47502780	      1.60068031	      3.82075201	    -17.39406256	     18.32410525	     18.32410525	     20.41607888	     -6.85955088	     -1.56973873	     29.52360720	     -3.46763871	      3.37755786	     21.37543981	     21.37543981	      1.32525573	     -5.71585681	     -2.13253759	     -8.07509724	      1.76974660	      4.70529628	     56.60023420	    -19.36078668	     -6.63286097	     83.90256585	     44.65684196	      0.00000000	      0.00000000	    -17.79519607	     -8.63687387	     11.36450524	     31.64246019	     44.15764937	      0.00000000	      0.00000000
     53.50428571	     -4.72374317	     -3.71790901	     11.26990530	      0.96363192	      0.91467788	      0.47118453	      1.05892867	      3.51278471	    -17.50935082	     18.13772026	     18.13772026	     20.27812146	     -6.47950572	     -1.54947281	     29.44539090	     -3.09248705	      3.82035452	     22.07819544	     22.07819544	      1.87056509	     -6.61834082	     -1.86500939	     -7.96991218	      1.60012578	      5.14245489	     56.16086096	    -19.67276375	     -7.05274405	     84.14562169	     44.67930574	      0.00000000	      0.00000000	    -16.55747471	     -8.83135819	     10.95512361	     32.09998261	     44.27101147	      0.00000000	      0.00000000
     53.52371429	     -4.76680947	     -3.67613516	     11.13921130	      0.96478305	      0.91510858	      0.46745626	      0.52645021	      3.26480718	    -17.48877410	     18.03104929	     18.03104929	     20.10203160	     -6.25147753	     -1.49602137	     29.36537270	     -2.84247364	      4.05520248	     22.87271030	     22.87271030	      2.52180725	     -7.26439492	     -1.90574546	     -7.90470576	      1.50025933	      5.32936512	     55.88443195	    -19.66502933	     -7.13533478	     83.93397029	     44.69551539	      0.00000000	      0.00000000	    -15.42708772	     -8.97943129	     10.68818317	     32.54354383	     44.34010405	      0.00000000	      0.00000000
     53.54314286	     -4.84802727	     -3.59797018	     10.90937768	      0.96601363	      0.91563415	      0.46382561	      0.07422529	      2.95350115	    -17.37613669	     18.01477448	     18.01477448	     19.91344785	     -6.07875255	     -1.43781608	     29.18536759	     -2.60650586	      4.10904098	     23.45430511	     23.45430511	      3.15199543	     -7.78217835	     -2.06474262	     -7.81525905	      1.37603007	      5.43629256	     55.44989660	    -19.40922124	     -7.04806472	     83.65700473	     44.70231801	      0.00000000	      0.00000000	    -14.27533815	     -9.20955794	     10.50843429	     32.97308931	     44.38633101	      0.00000000	      0.00000000
     53.56257143	     -4.83607336	     -3.60062369	     10.61672797	      0.96735235	      0.91618727	      0.46036561	     -0.42743011	      2.72064284	    -17.26488507	     18.06695500	     18.06695500	     19.73194293	     -5.70920012	     -1.44400579	     28.97421044	     -2.46256615	      4.30993677	     24.17827697	     24.17827697	      3.89466982	     -8.55021752	     -2.05346372	     -7.73954286	      1.28263950	      5.77060204	     54.91598676	    -19.43304778	     -7.13282925	     83.00501764	     44.72881677	      0.00000000	      0.00000000	    -13.10709214	     -9.45376006	     10.16880550	     33.52222628	     44.45769132	      0.00000000	      0.00000000
     53.58200000	     -4.91353422	     -3.57623604	     10.24997353	      0.96861420	      0.91677133	      0.45692028	     -0.69918338	      2.33945802	    -17.36289684	     18.38881582	     18.38881582	     19.55124718	     -5.10882855	     -1.63242123	     28.71674386	     -2.26459258	      4.52583014	     24.68939425	     24.68939425	      4.74439274	     -9.41399042	     -1.32443156	     -7.55298614	      1.15814888	      6.26120025	     54.33516149	    -19.59129460	     -7.49305071	     81.68545276	     44.79490941	      0.00000000	      0.00000000	    -11.82298857	     -9.65721331	      9.28520198	     34.31060034	     44.61891358	      0.00000000	      0.00000000
